<?xml version="1.0" encoding="UTF-8" standalone="no"?><!DOCTYPE svg PUBLIC "-//W3C//DTD SVG 1.1//EN" "http://www.w3.org/Graphics/SVG/1.1/DTD/svg11.dtd"><svg width="100%" height="100%" viewBox="0 0 463 669" version="1.1" xmlns="http://www.w3.org/2000/svg" xmlns:xlink="http://www.w3.org/1999/xlink" xml:space="preserve" xmlns:serif="http://www.serif.com/" style="fill-rule:evenodd;clip-rule:evenodd;stroke-linejoin:round;stroke-miterlimit:2;"><path d="M253.298,518.306c-15.564,49.004 -26.065,98.581 -26.444,143.468c-0.128,3.307 2.454,6.095 5.76,6.222c3.307,0.128 6.095,-2.454 6.222,-5.76c3.108,-45.269 17.35,-94.757 36.402,-143.211c40.615,1.299 77.252,2.232 102.482,3.013c15.111,0.347 29.796,-3.161 42.622,-10.169c12.767,-6.975 23.823,-17.153 31.658,-29.997c0,0 0,-0 0,-0c3.788,-6.212 6.676,-12.885 8.4,-19.866c1.717,-6.959 2.487,-14.166 2.026,-21.403c-0,0 -11.548,-172.715 -11.548,-172.715c-0.78,-11.262 -5.617,-21.358 -13.377,-28.446c-7.691,-7.026 -17.866,-11.496 -29.053,-11.258c0,-0 -0.001,0 -0.001,0c-4.648,0.099 -9.17,1.156 -13.103,3.367c-3.92,2.204 -7.446,5.203 -9.937,9.109c-0.027,0.039 -0.053,0.079 -0.079,0.119c-13.139,21.07 -72.919,118.851 -115.078,229.236c-13.398,-0.442 -27.17,-0.867 -41.068,-1.255c-53.021,-1.477 -107.854,-2.308 -150.166,-3.222c-0.002,-0.001 -0.005,-0.001 -0.007,-0.001c-5.871,-0.091 -11.582,-1.417 -16.64,-4.073c-5.128,-2.693 -9.752,-6.429 -13.206,-11.276c-3.503,-4.916 -5.893,-10.448 -6.771,-16.255c-0.891,-5.887 -0.587,-11.991 1.331,-17.802c24.98,-76.796 66.646,-149.951 121.604,-220.604c49.477,-63.608 109.399,-125.173 178.403,-184.88c2.568,-2.087 2.958,-5.867 0.871,-8.434c-2.087,-2.568 -5.867,-2.958 -8.434,-0.871c-73.704,56.243 -138.573,114.723 -192.398,176.421c-61.69,70.715 -108.594,145.565 -138.876,224.682c-0.005,0.015 -0.01,0.031 -0.016,0.046c-4.453,11.956 -5.734,24.632 -4.341,36.969c1.401,12.417 5.87,24.435 12.923,35.167c7.099,10.803 16.686,19.449 27.603,25.693c10.984,6.283 23.483,9.813 36.472,10.459c42.277,1.869 97.051,4.625 150.06,6.611c8.635,0.324 17.224,0.63 25.704,0.916Zm158.312,-250.183c-19.532,28.465 -73.275,109.93 -115.834,202.773c32.967,1.14 62.277,2.287 83.514,3.015c6.622,0.28 13.086,-1.113 18.787,-4.043c5.763,-2.963 10.903,-7.241 14.57,-12.851c-0,0 0,-0 0,-0c1.38,-2.11 2.516,-4.359 3.189,-6.758c0.68,-2.421 1.098,-4.931 1.016,-7.474c0,-0 -5.003,-173.029 -5.003,-173.029c-0.015,-0.566 -0.067,-1.134 -0.239,-1.633Z" style="fill:#efc14b;"/></svg>